<svg xmlns="http://www.w3.org/2000/svg" xmlns:xlink="http://www.w3.org/1999/xlink" version="1.1" x="0px" y="0px" viewBox="0 0 512 640" enable-background="new 0 0 512 512" xml:space="preserve"><g><path d="M99.3,179.5H67.7c-7.8,0-14.1,6.3-14.1,14.1c0,7.8,6.3,14.1,14.1,14.1h31.5c7.8,0,14.1-6.3,14.1-14.1   C113.4,185.8,107.1,179.5,99.3,179.5z"/><path d="M99.3,227.5H67.7c-7.8,0-14.1,6.3-14.1,14.1c0,7.8,6.3,14.1,14.1,14.1h31.5c7.8,0,14.1-6.3,14.1-14.1   C113.4,233.8,107.1,227.5,99.3,227.5z"/><path d="M441.7,136.1V57.7c-0.2-27.1-26.3-49.5-58-36.9L147.7,131.2H44.3C21,131.2,2,150.2,2,173.5v88.1C2,285,21,304,44.3,304h6.8   c-1.2,22.6-7.9,113.5-9.3,148.7c-1.1,18.7,13.9,42.2,40.8,42.2h59.7c23.5-0.6,41.4-17.4,40.7-43.3c-0.9-14.2-2.1-26.9-3.5-38.8h5.4   c7.8,0,14.1-6.3,14.1-14.1s-6.3-14.1-14.1-14.1h-9.3c-1.1-7.5-8.7-54.3-10.9-72.6l218.9,102.5c29.6,12.8,59.1-9.5,58-36.9v-78.4   c38.7-6.8,68.3-40.7,68.3-81.5S480.4,142.8,441.7,136.1z M44.3,275.8c-7.8,0-14.1-6.3-14.1-14.1v-88.1c0-7.8,6.3-14.1,14.1-14.1   h92.4v116.3H44.3z M142.3,466.6H82.6c-7.6-0.7-12-4.8-12.6-12.9c1.3-34.7,8.1-126.2,9.3-149.7h56c2.6,23.7,17.4,115,19.5,149.3   C154.7,461,150.6,466.3,142.3,466.6z M413.5,377.5c0.5,7.8-8,15.8-17.9,11.4L165,280.9V154.3l95.5-44.7v18.8   c0,7.8,6.3,14.1,14.1,14.1c7.8,0,14.1-6.3,14.1-14.1v-32l17.4-8.1v60.6c0,7.8,6.3,14.1,14.1,14.1c7.8,0,14.1-6.3,14.1-14.1V75   l61.3-28.7c8.7-3.2,17.4,1.4,17.9,11.4V377.5z M441.7,270.3V164.9c23,6.3,40.1,27.5,40.1,52.7S464.7,264,441.7,270.3z"/></g></svg>