<svg xmlns="http://www.w3.org/2000/svg" xmlns:xlink="http://www.w3.org/1999/xlink" version="1.1" x="0px" y="0px" viewBox="0 0 512 640" enable-background="new 0 0 512 512" xml:space="preserve"><path d="M501.1,153.6L261.2,58.4c-3.3-1.3-7.1-1.3-10.4,0L10.7,153.6c-12.2,5.8-10.9,22.1,0,26.3l73.6,29.2v184.7  c0.7,9.3,8.3,16.9,18.7,13.3c13.3-4.6,27.6-6.9,42.5-6.9c41.4,0,78.8,18.8,93,46.7c5.4,9.7,19.2,10.9,25.2-0.1  c14.1-27.9,51.4-46.6,92.8-46.6c14.9,0,29.3,2.3,42.5,6.9c9.1,3.1,18.5-3.8,18.7-13.3V212.9l64-25.4v141.9c0,7.8,6.3,14.1,14.1,14.1  c7.8,0,14.1-6.3,14.1-14.1V166.8C510.1,160.8,506.6,156.7,501.1,153.6z M389.6,375.3c-10.7-2.2-21.7-3.3-33-3.3  c-43.3,0-82.4,16.5-105.5,43.4c-23.2-26.9-62.3-43.4-105.5-43.4c-11.3,0-22.4,1.1-33,3.3v-32.6H145c7.8,0,14.1-6.3,14.1-14.1  s-6.3-14.1-14.1-14.1h-32.5v-26.2h52.3c7.8,0,14.1-6.3,14.1-14.1c0-7.8-6.3-14.1-14.1-14.1h-52.3v-39.8l138.3,54.8h10.4l128.4-50.9  V375.3z M256,246.8l-201.8-80l201.8-80l201.6,80L256,246.8z"/></svg>