<svg xmlns="http://www.w3.org/2000/svg" xmlns:xlink="http://www.w3.org/1999/xlink" version="1.1" x="0px" y="0px" viewBox="0 0 512 640" enable-background="new 0 0 512 512" xml:space="preserve"><path d="M509.6,492.8c0,0-35.9-161.2-35.9-161.3c-0.7-2.8-2.1-4.8-3.7-6.6l-308-308c-20.1-20.3-52-19.1-71.9,0L16.8,90.1  c-19.2,20-20.3,50.5,0,71.9l308,308c1.8,1.8,4.1,3,6.5,3.7c0,0,161.4,35.9,161.4,35.9C502.1,512,512.1,502.8,509.6,492.8z   M433.6,328.3c-19.8,7.6-37.8,18.5-53.4,31.9L162.7,142.7l42.7-42.7L433.6,328.3z M36.8,142.1c-9.6-10.3-7.6-23.9,0-32l73.3-73.3  c7.8-8.5,22.4-9.1,32,0l43.3,43.3L80.1,185.4L36.8,142.1z M328.3,433.6L100.1,205.4l42.7-42.7l217.4,217.4  C346.7,395.8,335.9,413.8,328.3,433.6z M352.6,449.5c15.6-45.8,51.2-81.4,96.9-97l27.7,124.7L352.6,449.5z"/></svg>