<?xml version="1.0" encoding="UTF-8"?>
<svg version="1.1" viewBox="0 0 299 477" xmlns="http://www.w3.org/2000/svg" xmlns:xlink="http://www.w3.org/1999/xlink">
<title>svg-note</title>
<desc>Created with Sketch.</desc>
<defs>
<rect id="b" width="299" height="477" rx="5"/>
<rect id="a" width="126" height="92"/>
</defs>
<g fill="none" fill-rule="evenodd">
    <g transform="translate(-550 -59)">
        <g transform="translate(550 59)">
            <use fill="#FBFBFB" fill-rule="evenodd" xlink:href="#b"/>
            <rect x=".5" y=".5" width="298" height="476" rx="5" stroke="#333"/>
            <rect x="24" y="106" width="110" height="14" rx="7" fill="#DBB3C5"/>
            <rect x="24" y="346" width="110" height="14" rx="7" fill="#DBB3C5"/>
            <rect x="24" y="381" width="175" height="14" rx="7" fill="#E7EEB2"/>
            <rect x="24" y="166" width="175" height="14" rx="7" fill="#E7EEB2"/>
            <rect x="24" y="191" width="210" height="14" rx="7" fill="#E7EEB2"/>
            <rect x="24" y="141" width="252" height="14" rx="7" fill="#E7EEB2"/>
            <rect x="24" y="406" width="252" height="14" rx="7" fill="#E7EEB2"/>
            <rect x="24" y="431" width="252" height="14" rx="7" fill="#E7EEB2"/>

            <text fill="#000000" font-family="Roboto-Medium, Roboto" font-size="11" font-weight="400">
            <tspan x="24" y="28">McMaster University</tspan>
            </text>
            <text fill="#000000" font-family="Roboto-Medium, Roboto" font-size="10" font-weight="400">
            <tspan x="24" y="42.3000002">PSYCH 1X03</tspan>
            </text>
            <text fill="#000000" font-family="Roboto-Light, Roboto" font-size="14" font-weight="300">
            <tspan x="24" y="69.5500002">Lesson 13:</tspan>
            <tspan x="24" y="87.9500002">Research Methods</tspan>
            </text>

            <g transform="translate(24 218)">
                <use fill="#FFFFFF" fill-rule="evenodd" xlink:href="#a"/>
                <rect x=".5" y=".5" width="125" height="91" stroke="#9B9B9B"/>
                <circle cx="64" cy="34" r="24" fill="#89023E" fill-opacity=".3" stroke="#9B9B9B"/>
                <circle cx="45" cy="57" r="24" fill="#228D80" fill-opacity=".3" stroke="#9B9B9B"/>
                <circle cx="81" cy="58" r="24" fill="#F5FAD1" fill-opacity=".3" stroke="#9B9B9B"/>
                </g>
            </g>
        </g>
    </g>
</svg>
