<svg width="659" height="570" xmlns="http://www.w3.org/2000/svg" preserveAspectRatio="xMidYMid meet">
 <metadata id="metadata12">image/svg+xml</metadata>

 <g>
  <title>background</title>
  <rect fill="#ffffff" id="canvas_background" height="572" width="661" y="-1" x="-1"/>
 </g>
 <g>
  <title>Layer 1</title>
  <g id="g6" transform="translate(0,570) scale(0.10000000149011612,-0.10000000149011612) ">
   <path fill="#ffffff" id="top" d="m3192,5262c-55,-92 -184,-313 -287,-492c-103,-179 -195,-338 -205,-355c-10,-16 -77,-133 -150,-260c-74,-126 -159,-275 -191,-330l-58,-100l32,-33c86,-90 348,-234 517,-285c162,-49 252,-61 440,-61c175,1 278,13 408,50c197,55 409,166 546,287l39,35l-237,412c-131,227 -246,427 -256,444c-10,17 -33,58 -52,91c-19,33 -94,162 -166,287c-73,125 -152,261 -177,303c-25,42 -45,78 -45,80c0,3 -13,25 -29,50l-28,45l-101,-168z"/>
   <path fill="#ffffff" id="sides" d="m2117,3393c-9,-16 -342,-591 -387,-668c-67,-115 -419,-724 -520,-900c-48,-82 -157,-271 -242,-420c-86,-148 -189,-326 -228,-395c-108,-186 -254,-440 -331,-574c-38,-66 -66,-122 -63,-125c3,-3 338,-6 744,-6c644,0 741,2 754,15c16,17 124,202 796,1365c160,278 578,999 620,1073c24,39 45,72 49,72c3,0 25,-33 47,-73c56,-97 226,-391 429,-742c92,-159 209,-362 260,-450c51,-88 220,-380 375,-650c156,-269 300,-518 319,-553l35,-63l732,3c403,2 735,6 739,9c3,4 -53,110 -126,235c-72,126 -167,290 -209,364c-43,74 -161,279 -263,455c-101,176 -271,471 -377,655c-106,184 -226,391 -266,460c-39,69 -172,298 -294,510c-122,212 -228,391 -234,398c-10,10 -31,-1 -107,-56c-116,-84 -190,-128 -305,-180c-603,-271 -1341,-194 -1856,193c-74,56 -84,61 -91,48z"/>
   <path fill="#ffffff" id="bottom" d="m2788,1202l-516,-897l519,-3c285,-1 752,-1 1037,0l518,3l-505,876c-278,481 -513,885 -521,897c-14,20 -41,-24 -532,-876z"/>
  </g>
 </g>
</svg>