<?xml version="1.0" encoding="UTF-8" standalone="no"?>
<svg
   xmlns:dc="http://purl.org/dc/elements/1.1/"
   xmlns:cc="http://creativecommons.org/ns#"
   xmlns:rdf="http://www.w3.org/1999/02/22-rdf-syntax-ns#"
   xmlns:svg="http://www.w3.org/2000/svg"
   xmlns="http://www.w3.org/2000/svg"
   xmlns:sodipodi="http://sodipodi.sourceforge.net/DTD/sodipodi-0.dtd"
   xmlns:inkscape="http://www.inkscape.org/namespaces/inkscape"
   version="1.0"
   width="659px"
   height="570px"
   viewBox="0 0 659 570"
   preserveAspectRatio="xMidYMid meet"
   id="svg2"
   inkscape:version="0.91 r13725"
   sodipodi:docname="logo_colour2.svg">
  <metadata
     id="metadata12">
    <rdf:RDF>
      <cc:Work
         rdf:about="">
        <dc:format>image/svg+xml</dc:format>
        <dc:type
           rdf:resource="http://purl.org/dc/dcmitype/StillImage" />
      </cc:Work>
    </rdf:RDF>
  </metadata>
  <defs
     id="defs10" />
  <sodipodi:namedview
     pagecolor="#ffffff"
     bordercolor="#666666"
     borderopacity="1"
     objecttolerance="10"
     gridtolerance="10"
     guidetolerance="10"
     inkscape:pageopacity="0"
     inkscape:pageshadow="2"
     inkscape:window-width="686"
     inkscape:window-height="480"
     id="namedview8"
     showgrid="false"
     inkscape:zoom="0.41403509"
     inkscape:cx="329.5"
     inkscape:cy="285"
     inkscape:window-x="628"
     inkscape:window-y="78"
     inkscape:window-maximized="0"
     inkscape:current-layer="svg2" />
  <g
     transform="translate(0.000000,570.000000) scale(0.100000,-0.100000)"
     id="g6">
    <path
       d="M3192 5262 c-55 -92 -184 -313 -287 -492 -103 -179 -195 -338 -205 -355 -10 -16 -77 -133 -150 -260 -74 -126 -159 -275 -191 -330 l-58 -100 32 -33 c86 -90 348 -234 517 -285 162 -49 252 -61 440 -61 175 1 278 13 408 50 197 55 409 166 546 287 l39 35 -237 412 c-131 227 -246 427 -256 444 -10 17 -33 58 -52 91 -19 33 -94 162 -166 287 -73 125 -152 261 -177 303 -25 42 -45 78 -45 80 0 3 -13 25 -29 50 l-28 45 -101 -168z"
       id="top" fill="#22b14c" />
    <path
       d="M2117 3393 c-9 -16 -342 -591 -387 -668 -67 -115 -419 -724 -520 -900 -48 -82 -157 -271 -242 -420 -86 -148 -189 -326 -228 -395 -108 -186 -254 -440 -331 -574 -38 -66 -66 -122 -63 -125 3 -3 338 -6 744 -6 644 0 741 2 754 15 16 17 124 202 796 1365 160 278 578 999 620 1073 24 39 45 72 49 72 3 0 25 -33 47 -73 56 -97 226 -391 429 -742 92 -159 209 -362 260 -450 51 -88 220 -380 375 -650 156 -269 300 -518 319 -553 l35 -63 732 3 c403 2 735 6 739 9 3 4 -53 110 -126 235 -72 126 -167 290 -209 364 -43 74 -161 279 -263 455 -101 176 -271 471 -377 655 -106 184 -226 391 -266 460 -39 69 -172 298 -294 510 -122 212 -228 391 -234 398 -10 10 -31 -1 -107 -56 -116 -84 -190 -128 -305 -180 -603 -271 -1341 -194 -1856 193 -74 56 -84 61 -91 48z"
       id="sides" fill="#d90d14"/>
    <path
       d="M2788 1202 l-516 -897 519 -3 c285 -1 752 -1 1037 0 l518 3 -505 876 c-278 481 -513 885 -521 897 -14 20 -41 -24 -532 -876z"
       id="bottom" fill="#00a2e8"/>
  </g>
</svg>
